<svg id="Capa_1" data-name="Capa 1" xmlns="http://www.w3.org/2000/svg" viewBox="0 0 20 20"><title>social-08</title><g id="Row_1" data-name="Row 1"><path d="M17.67.14H2.33A2.15,2.15,0,0,0,.14,2.33V17.67a2.15,2.15,0,0,0,2.19,2.19H17.67a2.15,2.15,0,0,0,2.19-2.19V2.33A2.15,2.15,0,0,0,17.67.14ZM10,16.06A6,6,0,0,0,16.06,10a5.2,5.2,0,0,0-.15-1.1h1.76v7.89a.73.73,0,0,1-.73.73H3.06a.73.73,0,0,1-.73-.73V8.9H4A5.92,5.92,0,0,0,3.87,10,6.15,6.15,0,0,0,10,16.06ZM6.2,10A3.8,3.8,0,1,1,10,13.8,3.82,3.82,0,0,1,6.2,10ZM16.94,5.62H15.18a.74.74,0,0,1-.73-.73V3.06a.74.74,0,0,1,.73-.73h1.76a.74.74,0,0,1,.73.73V4.82A.81.81,0,0,1,16.94,5.62Z"/></g></svg>